<svg width="419" height="106" viewBox="0 0 419 106" fill="none" xmlns="http://www.w3.org/2000/svg">
<path fill-rule="evenodd" clip-rule="evenodd" d="M70.0431 16.6379C66.2617 16.1406 64.7951 13.8846 63.6951 10.9353C63.4711 14.4913 60.9604 15.7766 57.5511 17.1633C61.3631 17.7059 62.8444 19.8139 63.8031 22.6739C65.6177 18.7286 65.6177 18.7286 70.0431 16.6379ZM83.2271 40.0779C78.5537 42.9753 73.5817 44.9793 68.2071 45.8593C62.7991 46.7446 57.3791 47.4126 51.5977 45.6339C55.3057 42.3219 57.2377 38.7939 55.6711 34.2059C54.9284 32.0273 53.4671 30.5806 50.9857 30.3713C44.5751 29.8313 43.0684 34.6873 41.3617 39.8499C37.6791 34.8593 37.4764 29.8859 38.7004 24.8313C40.1351 18.9019 45.1991 17.5126 50.4164 16.3859C48.7951 16.0473 47.3271 16.1099 45.8671 16.0353C39.6271 15.7153 35.5871 18.7059 33.1431 24.2699C31.0991 28.9246 31.0484 33.7779 31.8844 38.6153C34.0671 51.2273 40.6364 61.7979 47.8644 72.0233C47.9857 72.1953 48.3937 72.1659 48.8684 72.2766C48.7271 71.3086 48.5911 70.5433 48.5071 69.7726C47.6604 62.0793 50.5124 57.4419 57.7551 54.8099C59.3484 54.2299 60.9937 53.7846 62.6257 53.3166C66.8711 52.0993 71.1364 50.9486 75.0177 48.7339C78.5911 46.6953 81.6577 44.1846 83.2271 40.0779V40.0779ZM29.0764 46.0966C29.2644 57.7713 33.0057 68.2046 39.7457 77.6499C46.7551 87.4699 56.0844 94.4966 66.5457 100.201C67.5151 100.727 69.0991 101.043 69.0404 102.227C68.9631 103.737 67.1697 103.522 66.0897 103.993C57.4031 107.777 51.5244 103.633 45.8031 97.4646C35.1204 85.9459 28.1071 72.9113 26.9644 57.0259C24.8297 74.6419 30.7684 89.8339 41.3644 103.677C39.4337 104.433 38.0831 103.645 36.7511 103.205C12.7071 95.2846 -1.92894 73.5259 0.205723 47.5699C2.12839 24.1966 19.8284 5.04727 43.6777 0.78327C64.1364 -2.87273 86.6071 6.37127 98.6977 26.3873C108.911 43.2966 107.856 67.3206 95.6577 83.8273C89.9604 91.5379 81.8044 92.3166 73.3484 91.2659C60.9191 89.7219 51.8871 82.1126 43.7711 73.3353C36.5751 65.5539 32.0951 56.2073 29.0764 46.0966" fill="#F68712"/>
<path d="M119.264 36.388C119.264 37.256 119.363 38.0093 119.561 38.648C119.76 39.2853 120.02 39.8133 120.344 40.2333C120.668 40.652 121.036 40.964 121.445 41.1666C121.856 41.3706 122.271 41.472 122.689 41.472C123.12 41.472 123.511 41.3773 123.863 41.1853C124.213 40.9946 124.523 40.74 124.788 40.424C125.053 40.1093 125.272 39.7493 125.445 39.3453C125.619 38.9413 125.744 38.5266 125.821 38.1013H127.832C127.704 38.824 127.499 39.4973 127.216 40.1186C126.935 40.7426 126.577 41.2853 126.144 41.7506C125.712 42.2146 125.207 42.58 124.628 42.844C124.051 43.108 123.404 43.24 122.689 43.24C121.863 43.24 121.117 43.0866 120.453 42.78C119.789 42.4733 119.223 42.0266 118.753 41.4413C118.284 40.8546 117.923 40.136 117.668 39.2853C117.415 38.4346 117.288 37.4666 117.288 36.3786C117.288 35.5346 117.407 34.7213 117.648 33.9413C117.888 33.1613 118.237 32.4693 118.699 31.868C119.159 31.2666 119.723 30.7866 120.391 30.428C121.057 30.0706 121.816 29.8906 122.664 29.8906C123.391 29.8906 124.04 30.0026 124.612 30.228C125.184 30.4533 125.685 30.764 126.115 31.1626C126.545 31.56 126.907 32.032 127.2 32.5786C127.493 33.1253 127.727 33.724 127.9 34.3746H125.847C125.551 33.4693 125.144 32.7933 124.624 32.3466C124.105 31.9 123.452 31.6773 122.664 31.6773C122.168 31.6773 121.711 31.8013 121.295 32.0506C120.879 32.3 120.52 32.6373 120.219 33.0666C119.917 33.4946 119.683 33.9946 119.515 34.5653C119.347 35.1373 119.264 35.744 119.264 36.388Z" fill="#393536"/>
<path d="M138.756 36.5247C138.756 35.7527 138.667 35.0661 138.488 34.4661C138.309 33.8634 138.065 33.3581 137.756 32.9474C137.445 32.5381 137.083 32.2247 136.667 32.0101C136.251 31.7941 135.803 31.6861 135.323 31.6861C134.836 31.6861 134.385 31.7941 133.969 32.0101C133.553 32.2247 133.193 32.5381 132.889 32.9474C132.585 33.3581 132.344 33.8634 132.169 34.4661C131.993 35.0661 131.905 35.7527 131.905 36.5247C131.905 37.2967 131.993 37.9861 132.169 38.5927C132.344 39.2007 132.585 39.7154 132.889 40.1367C133.193 40.5594 133.553 40.8821 133.969 41.1034C134.385 41.3247 134.836 41.4367 135.323 41.4367C135.803 41.4367 136.251 41.3247 136.667 41.1034C137.083 40.8821 137.445 40.5594 137.756 40.1367C138.065 39.7154 138.309 39.2007 138.488 38.5927C138.667 37.9861 138.756 37.2967 138.756 36.5247ZM140.732 36.5341C140.732 37.5181 140.613 38.4207 140.372 39.2447C140.132 40.0674 139.783 40.7754 139.321 41.3674C138.861 41.9594 138.296 42.4194 137.625 42.7474C136.955 43.0767 136.188 43.2407 135.323 43.2407C134.456 43.2407 133.691 43.0754 133.023 42.7434C132.356 42.4127 131.792 41.9501 131.331 41.3581C130.871 40.7661 130.521 40.0581 130.284 39.2354C130.047 38.4127 129.928 37.5087 129.928 36.5247C129.928 35.5407 130.047 34.6407 130.284 33.8274C130.521 33.0141 130.871 32.3154 131.331 31.7314C131.792 31.1487 132.356 30.6954 133.023 30.3741C133.691 30.0527 134.456 29.8914 135.323 29.8914C136.188 29.8914 136.955 30.0527 137.625 30.3781C138.296 30.7034 138.861 31.1581 139.321 31.7407C139.783 32.3247 140.132 33.0234 140.372 33.8367C140.613 34.6501 140.732 35.5501 140.732 36.5341Z" fill="#393536"/>
<path d="M144.974 38.4746C145.002 38.912 145.084 39.3106 145.22 39.672C145.358 40.0346 145.538 40.3453 145.76 40.6066C145.984 40.868 146.247 41.0706 146.548 41.2133C146.85 41.356 147.182 41.4266 147.544 41.4266C147.863 41.4266 148.168 41.3906 148.462 41.3173C148.755 41.2453 149.014 41.1266 149.236 40.9626C149.46 40.7986 149.639 40.584 149.774 40.32C149.907 40.056 149.974 39.7293 149.974 39.34C149.974 39 149.878 38.712 149.684 38.4746C149.492 38.2373 149.239 38.032 148.927 37.86C148.614 37.6866 148.256 37.5306 147.855 37.3906C147.452 37.2506 147.044 37.1026 146.628 36.948C146.212 36.7933 145.803 36.6213 145.4 36.4333C144.999 36.2453 144.64 36.0133 144.328 35.736C144.016 35.46 143.763 35.128 143.571 34.7386C143.378 34.3493 143.282 33.8826 143.282 33.336C143.282 32.7773 143.383 32.2826 143.583 31.8546C143.784 31.4266 144.067 31.0666 144.434 30.7746C144.799 30.4826 145.235 30.2626 145.74 30.1133C146.246 29.9653 146.799 29.892 147.403 29.892C147.939 29.892 148.414 29.9506 148.827 30.0693C149.239 30.1866 149.602 30.348 149.911 30.552C150.222 30.7546 150.481 30.992 150.695 31.2626C150.907 31.532 151.082 31.8226 151.218 32.1333C151.355 32.4426 151.456 32.7613 151.523 33.0893C151.59 33.4173 151.635 33.74 151.658 34.056H149.639C149.606 33.648 149.524 33.296 149.396 32.9986C149.267 32.7 149.104 32.4546 148.906 32.26C148.707 32.0653 148.48 31.9213 148.224 31.828C147.967 31.7333 147.694 31.6866 147.403 31.6866C147.14 31.6866 146.882 31.7146 146.628 31.7733C146.374 31.8306 146.146 31.924 145.946 32.056C145.744 32.1853 145.582 32.356 145.455 32.5653C145.33 32.7746 145.267 33.032 145.267 33.336C145.267 33.688 145.363 33.984 145.556 34.224C145.748 34.464 146.002 34.6733 146.314 34.852C146.627 35.032 146.983 35.1933 147.386 35.336C147.788 35.4786 148.198 35.6266 148.616 35.7813C149.035 35.9373 149.446 36.1106 149.848 36.3013C150.251 36.4933 150.608 36.724 150.92 36.9946C151.232 37.264 151.485 37.5893 151.677 37.9693C151.871 38.348 151.967 38.8066 151.967 39.34C151.967 39.9906 151.858 40.5573 151.636 41.044C151.416 41.5306 151.11 41.936 150.715 42.26C150.322 42.5853 149.855 42.8306 149.316 42.9946C148.778 43.1586 148.187 43.24 147.544 43.24C146.97 43.24 146.411 43.1306 145.87 42.912C145.328 42.6933 144.843 42.3773 144.416 41.964C143.99 41.552 143.643 41.052 143.378 40.4653C143.112 39.88 142.972 39.216 142.955 38.4746H144.974Z" fill="#393536"/>
<path d="M156.802 30.2096V38.6296C156.802 39.0722 156.868 39.4696 157.003 39.8189C157.136 40.1682 157.315 40.4616 157.539 40.7029C157.762 40.9429 158.02 41.1256 158.314 41.2496C158.607 41.3736 158.912 41.4362 159.231 41.4362C159.571 41.4362 159.902 41.3776 160.223 41.2629C160.544 41.1482 160.831 40.9749 161.082 40.7429C161.332 40.5122 161.534 40.2256 161.686 39.8816C161.835 39.5389 161.911 39.1362 161.911 38.6749V30.2096H163.887V38.5749C163.887 39.3336 163.758 40.0042 163.498 40.5842C163.239 41.1642 162.894 41.6522 162.464 42.0456C162.034 42.4416 161.54 42.7389 160.982 42.9389C160.423 43.1402 159.846 43.2402 159.247 43.2402C158.678 43.2402 158.127 43.1416 157.594 42.9442C157.06 42.7469 156.588 42.4522 156.178 42.0602C155.768 41.6682 155.44 41.1776 155.194 40.5882C154.948 39.9989 154.826 39.3162 154.826 38.5389V30.2096H156.802Z" fill="#393536"/>
<path d="M169.485 30.2096V41.0709H175.105V42.9216H167.509V30.2096H169.485Z" fill="#393536"/>
<path d="M184.246 30.2096V32.0229H180.551V42.9216H178.575V32.0229H174.874V30.2096H184.246Z" fill="#393536"/>
<path d="M194.591 36.5247C194.591 35.7527 194.502 35.0661 194.323 34.4661C194.145 33.8634 193.901 33.3581 193.591 32.9474C193.281 32.5381 192.918 32.2247 192.502 32.0101C192.086 31.7941 191.638 31.6861 191.158 31.6861C190.671 31.6861 190.221 31.7941 189.805 32.0101C189.389 32.2247 189.029 32.5381 188.725 32.9474C188.421 33.3581 188.179 33.8634 188.005 34.4661C187.829 35.0661 187.741 35.7527 187.741 36.5247C187.741 37.2967 187.829 37.9861 188.005 38.5927C188.179 39.2007 188.421 39.7154 188.725 40.1367C189.029 40.5594 189.389 40.8821 189.805 41.1034C190.221 41.3247 190.671 41.4367 191.158 41.4367C191.638 41.4367 192.086 41.3247 192.502 41.1034C192.918 40.8821 193.281 40.5594 193.591 40.1367C193.901 39.7154 194.145 39.2007 194.323 38.5927C194.502 37.9861 194.591 37.2967 194.591 36.5247ZM196.567 36.5341C196.567 37.5181 196.449 38.4207 196.207 39.2447C195.967 40.0674 195.618 40.7754 195.157 41.3674C194.697 41.9594 194.131 42.4194 193.461 42.7474C192.79 43.0767 192.023 43.2407 191.158 43.2407C190.291 43.2407 189.526 43.0754 188.858 42.7434C188.191 42.4127 187.627 41.9501 187.166 41.3581C186.706 40.7661 186.357 40.0581 186.119 39.2354C185.882 38.4127 185.763 37.5087 185.763 36.5247C185.763 35.5407 185.882 34.6407 186.119 33.8274C186.357 33.0141 186.706 32.3154 187.166 31.7314C187.627 31.1487 188.191 30.6954 188.858 30.3741C189.526 30.0527 190.291 29.8914 191.158 29.8914C192.023 29.8914 192.79 30.0527 193.461 30.3781C194.131 30.7034 194.697 31.1581 195.157 31.7407C195.618 32.3247 195.967 33.0234 196.207 33.8367C196.449 34.6501 196.567 35.5501 196.567 36.5341Z" fill="#393536"/>
<path d="M201.52 35.9049H204.502C204.743 35.9049 204.97 35.8582 205.186 35.7635C205.4 35.6702 205.59 35.5395 205.755 35.3715C205.919 35.2049 206.048 35.0022 206.144 34.7662C206.239 34.5289 206.287 34.2675 206.287 33.9822C206.287 33.7035 206.242 33.4435 206.152 33.2035C206.063 32.9635 205.939 32.7569 205.779 32.5835C205.62 32.4102 205.432 32.2742 205.215 32.1742C204.996 32.0729 204.759 32.0235 204.502 32.0235H201.52V35.9049ZM208.28 33.9369C208.28 34.4955 208.146 35.0195 207.878 35.5089C207.61 35.9969 207.204 36.4209 206.663 36.7795C206.92 36.8769 207.14 37.0169 207.326 37.1982C207.51 37.3809 207.659 37.5862 207.778 37.8142C207.895 38.0422 207.982 38.2849 208.036 38.5435C208.092 38.8009 208.12 39.0582 208.12 39.3129V41.1449C208.12 41.3809 208.172 41.6542 208.275 41.9635C208.379 42.2742 208.52 42.5929 208.699 42.9209H206.538C206.454 42.7755 206.387 42.6235 206.336 42.4649C206.287 42.3075 206.247 42.1529 206.219 42.0009C206.191 41.8489 206.174 41.7062 206.164 41.5729C206.156 41.4382 206.152 41.3209 206.152 41.2169V39.2862C206.152 39.0969 206.123 38.9089 206.064 38.7209C206.006 38.5329 205.911 38.3635 205.779 38.2142C205.648 38.0662 205.478 37.9449 205.27 37.8502C205.059 37.7569 204.804 37.7089 204.502 37.7089H201.52V42.9209H199.544V30.2102H204.502C205.106 30.2102 205.642 30.3195 206.11 30.5382C206.579 30.7569 206.975 31.0409 207.296 31.3902C207.616 31.7395 207.86 32.1369 208.028 32.5835C208.196 33.0302 208.28 33.4809 208.28 33.9369Z" fill="#393536"/>
<path d="M220.041 30.2096V32.0229H213.768V35.4589H219.656V37.2802H213.768V41.0709H220.319V42.9216H211.792V30.2096H220.041Z" fill="#393536"/>
<path d="M224.708 38.4746C224.736 38.912 224.819 39.3106 224.955 39.672C225.092 40.0346 225.272 40.3453 225.495 40.6066C225.719 40.868 225.982 41.0706 226.283 41.2133C226.584 41.356 226.916 41.4266 227.279 41.4266C227.598 41.4266 227.903 41.3906 228.196 41.3173C228.49 41.2453 228.748 41.1266 228.971 40.9626C229.195 40.7986 229.374 40.584 229.508 40.32C229.642 40.056 229.708 39.7293 229.708 39.34C229.708 39 229.612 38.712 229.419 38.4746C229.227 38.2373 228.974 38.032 228.662 37.86C228.348 37.6866 227.991 37.5306 227.59 37.3906C227.187 37.2506 226.779 37.1026 226.363 36.948C225.947 36.7933 225.538 36.6213 225.135 36.4333C224.734 36.2453 224.375 36.0133 224.063 35.736C223.751 35.46 223.498 35.128 223.306 34.7386C223.112 34.3493 223.016 33.8826 223.016 33.336C223.016 32.7773 223.118 32.2826 223.318 31.8546C223.519 31.4266 223.802 31.0666 224.168 30.7746C224.534 30.4826 224.97 30.2626 225.475 30.1133C225.98 29.9653 226.534 29.892 227.138 29.892C227.674 29.892 228.148 29.9506 228.562 30.0693C228.974 30.1866 229.336 30.348 229.646 30.552C229.956 30.7546 230.216 30.992 230.43 31.2626C230.642 31.532 230.816 31.8226 230.952 32.1333C231.09 32.4426 231.191 32.7613 231.258 33.0893C231.324 33.4173 231.37 33.74 231.392 34.056H229.374C229.34 33.648 229.259 33.296 229.131 32.9986C229.002 32.7 228.839 32.4546 228.64 32.26C228.442 32.0653 228.215 31.9213 227.959 31.828C227.702 31.7333 227.428 31.6866 227.138 31.6866C226.875 31.6866 226.616 31.7146 226.363 31.7733C226.108 31.8306 225.88 31.924 225.68 32.056C225.479 32.1853 225.316 32.356 225.19 32.5653C225.064 32.7746 225.002 33.032 225.002 33.336C225.002 33.688 225.098 33.984 225.291 34.224C225.483 34.464 225.736 34.6733 226.048 34.852C226.362 35.032 226.718 35.1933 227.12 35.336C227.523 35.4786 227.932 35.6266 228.351 35.7813C228.77 35.9373 229.18 36.1106 229.583 36.3013C229.986 36.4933 230.343 36.724 230.655 36.9946C230.967 37.264 231.22 37.5893 231.412 37.9693C231.606 38.348 231.702 38.8066 231.702 39.34C231.702 39.9906 231.592 40.5573 231.371 41.044C231.151 41.5306 230.844 41.936 230.45 42.26C230.056 42.5853 229.59 42.8306 229.051 42.9946C228.512 43.1586 227.922 43.24 227.279 43.24C226.704 43.24 226.146 43.1306 225.604 42.912C225.063 42.6933 224.578 42.3773 224.151 41.964C223.724 41.552 223.378 41.052 223.112 40.4653C222.847 39.88 222.707 39.216 222.69 38.4746H224.708Z" fill="#393536"/>
<path d="M241.105 42.921H239.129V30.209H241.105V42.921Z" fill="#393536"/>
<path d="M246.978 30.2096L251.995 39.8682V30.2096H253.971V42.9216H251.743L246.701 33.1616V42.9216H244.725V30.2096H246.978Z" fill="#393536"/>
<path d="M266.178 30.2096V32.0229H262.483V42.9216H260.507V32.0229H256.806V30.2096H266.178Z" fill="#393536"/>
<path d="M277.252 30.2096V32.0229H270.979V35.4589H276.867V37.2802H270.979V41.0709H277.529V42.9216H269.003V30.2096H277.252Z" fill="#393536"/>
<path d="M282.171 36.5704C282.171 37.353 282.263 38.0477 282.447 38.653C282.631 39.257 282.882 39.765 283.198 40.1784C283.513 40.5917 283.879 40.9064 284.299 41.1224C284.718 41.337 285.162 41.445 285.63 41.445C286.015 41.445 286.393 41.3424 286.761 41.1357C287.13 40.929 287.463 40.6544 287.762 40.3104C288.061 39.9677 288.31 39.5704 288.511 39.1224C288.713 38.6717 288.838 38.205 288.889 37.7184H285.446V35.9144H290.839V42.921H289.349L289.115 41.409C288.891 41.6637 288.643 41.9024 288.373 42.1237C288.102 42.3464 287.819 42.5384 287.523 42.7024C287.227 42.8664 286.921 42.997 286.602 43.0944C286.283 43.1917 285.969 43.2397 285.655 43.2397C284.818 43.2397 284.062 43.0717 283.39 42.7344C282.717 42.397 282.143 41.9317 281.669 41.3357C281.194 40.7397 280.83 40.0357 280.575 39.2224C280.322 38.4077 280.195 37.5237 280.195 36.5704C280.195 36.017 280.249 35.4677 280.358 34.921C280.467 34.3744 280.626 33.853 280.835 33.3584C281.045 32.8637 281.303 32.4037 281.61 31.9824C281.917 31.5597 282.269 31.1944 282.666 30.8837C283.062 30.5744 283.505 30.3317 283.993 30.1544C284.481 29.9797 285.007 29.8917 285.571 29.8917C286.298 29.8917 286.947 30.0037 287.519 30.2277C288.091 30.453 288.593 30.765 289.022 31.1624C289.453 31.5597 289.814 32.033 290.107 32.5784C290.401 33.1264 290.634 33.7237 290.807 34.3744H288.754C288.458 33.469 288.051 32.793 287.531 32.3477C287.013 31.901 286.359 31.677 285.571 31.677C285.075 31.677 284.618 31.8064 284.202 32.065C283.786 32.3224 283.427 32.6744 283.126 33.121C282.825 33.5677 282.59 34.0877 282.422 34.6797C282.254 35.2717 282.171 35.9024 282.171 36.5704Z" fill="#393536"/>
<path d="M296.236 35.9049H299.217C299.458 35.9049 299.685 35.8582 299.901 35.7635C300.116 35.6702 300.305 35.5395 300.47 35.3715C300.634 35.2049 300.764 35.0022 300.86 34.7662C300.954 34.5289 301.002 34.2675 301.002 33.9822C301.002 33.7035 300.957 33.4435 300.868 33.2035C300.778 32.9635 300.654 32.7569 300.494 32.5835C300.336 32.4102 300.148 32.2742 299.93 32.1742C299.712 32.0729 299.474 32.0235 299.217 32.0235H296.236V35.9049ZM302.996 33.9369C302.996 34.4955 302.861 35.0195 302.593 35.5089C302.325 35.9969 301.92 36.4209 301.378 36.7795C301.636 36.8769 301.856 37.0169 302.041 37.1982C302.225 37.3809 302.374 37.5862 302.493 37.8142C302.61 38.0422 302.697 38.2849 302.752 38.5435C302.808 38.8009 302.836 39.0582 302.836 39.3129V41.1449C302.836 41.3809 302.888 41.6542 302.99 41.9635C303.094 42.2742 303.236 42.5929 303.414 42.9209H301.253C301.169 42.7755 301.102 42.6235 301.052 42.4649C301.002 42.3075 300.962 42.1529 300.934 42.0009C300.906 41.8489 300.889 41.7062 300.88 41.5729C300.872 41.4382 300.868 41.3209 300.868 41.2169V39.2862C300.868 39.0969 300.838 38.9089 300.78 38.7209C300.721 38.5329 300.626 38.3635 300.494 38.2142C300.364 38.0662 300.193 37.9449 299.985 37.8502C299.774 37.7569 299.52 37.7089 299.217 37.7089H296.236V42.9209H294.26V30.2102H299.217C299.821 30.2102 300.357 30.3195 300.825 30.5382C301.294 30.7569 301.69 31.0409 302.012 31.3902C302.332 31.7395 302.576 32.1369 302.744 32.5835C302.912 33.0302 302.996 33.4809 302.996 33.9369Z" fill="#393536"/>
<path d="M311.164 32.8705L309.673 37.3985H312.646L311.164 32.8705ZM312.32 30.2091L316.592 42.9211H314.522L313.266 39.2038H309.061C308.86 39.8171 308.653 40.4371 308.438 41.0625C308.222 41.6878 308.014 42.3078 307.813 42.9211H305.77L310.041 30.2091H312.32Z" fill="#393536"/>
<path d="M321.451 41.0715H323.546C324.075 41.0715 324.567 40.9729 325.019 40.7755C325.473 40.5782 325.863 40.2875 326.193 39.9049C326.522 39.5222 326.779 39.0515 326.963 38.4929C327.147 37.9342 327.239 37.2929 327.239 36.5702C327.239 35.7809 327.146 35.0995 326.958 34.5289C326.771 33.9582 326.513 33.4875 326.183 33.1169C325.854 32.7462 325.463 32.4715 325.011 32.2929C324.559 32.1129 324.07 32.0235 323.546 32.0235H321.451V41.0715ZM319.475 30.2102H324.014C324.818 30.2102 325.541 30.3755 326.179 30.7062C326.819 31.0382 327.363 31.4902 327.813 32.0649C328.262 32.6382 328.607 33.3102 328.847 34.0782C329.087 34.8462 329.207 35.6675 329.207 36.5435C329.207 37.4542 329.081 38.2982 328.826 39.0755C328.573 39.8529 328.218 40.5275 327.762 41.0995C327.307 41.6702 326.762 42.1169 326.125 42.4382C325.489 42.7609 324.785 42.9209 324.014 42.9209H319.475V30.2102Z" fill="#393536"/>
<path d="M340.366 36.5247C340.366 35.7527 340.277 35.0661 340.098 34.4661C339.919 33.8634 339.675 33.3581 339.366 32.9474C339.055 32.5381 338.693 32.2247 338.277 32.0101C337.861 31.7941 337.413 31.6861 336.933 31.6861C336.446 31.6861 335.995 31.7941 335.579 32.0101C335.163 32.2247 334.803 32.5381 334.499 32.9474C334.195 33.3581 333.954 33.8634 333.779 34.4661C333.603 35.0661 333.515 35.7527 333.515 36.5247C333.515 37.2967 333.603 37.9861 333.779 38.5927C333.954 39.2007 334.195 39.7154 334.499 40.1367C334.803 40.5594 335.163 40.8821 335.579 41.1034C335.995 41.3247 336.446 41.4367 336.933 41.4367C337.413 41.4367 337.861 41.3247 338.277 41.1034C338.693 40.8821 339.055 40.5594 339.366 40.1367C339.675 39.7154 339.919 39.2007 340.098 38.5927C340.277 37.9861 340.366 37.2967 340.366 36.5247ZM342.342 36.5341C342.342 37.5181 342.223 38.4207 341.982 39.2447C341.742 40.0674 341.393 40.7754 340.931 41.3674C340.471 41.9594 339.906 42.4194 339.235 42.7474C338.565 43.0767 337.798 43.2407 336.933 43.2407C336.066 43.2407 335.301 43.0754 334.633 42.7434C333.966 42.4127 333.402 41.9501 332.941 41.3581C332.481 40.7661 332.131 40.0581 331.894 39.2354C331.657 38.4127 331.538 37.5087 331.538 36.5247C331.538 35.5407 331.657 34.6407 331.894 33.8274C332.131 33.0141 332.481 32.3154 332.941 31.7314C333.402 31.1487 333.966 30.6954 334.633 30.3741C335.301 30.0527 336.066 29.8914 336.933 29.8914C337.798 29.8914 338.565 30.0527 339.235 30.3781C339.906 30.7034 340.471 31.1581 340.931 31.7407C341.393 32.3247 341.742 33.0234 341.982 33.8367C342.223 34.6501 342.342 35.5501 342.342 36.5341Z" fill="#393536"/>
<path d="M346.583 38.4746C346.611 38.912 346.693 39.3106 346.829 39.672C346.967 40.0346 347.147 40.3453 347.369 40.6066C347.593 40.868 347.856 41.0706 348.157 41.2133C348.459 41.356 348.791 41.4266 349.153 41.4266C349.472 41.4266 349.777 41.3906 350.071 41.3173C350.364 41.2453 350.623 41.1266 350.845 40.9626C351.069 40.7986 351.248 40.584 351.383 40.32C351.516 40.056 351.583 39.7293 351.583 39.34C351.583 39 351.487 38.712 351.293 38.4746C351.101 38.2373 350.848 38.032 350.536 37.86C350.223 37.6866 349.865 37.5306 349.464 37.3906C349.061 37.2506 348.653 37.1026 348.237 36.948C347.821 36.7933 347.412 36.6213 347.009 36.4333C346.608 36.2453 346.249 36.0133 345.937 35.736C345.625 35.46 345.372 35.128 345.18 34.7386C344.987 34.3493 344.891 33.8826 344.891 33.336C344.891 32.7773 344.992 32.2826 345.192 31.8546C345.393 31.4266 345.676 31.0666 346.043 30.7746C346.408 30.4826 346.844 30.2626 347.349 30.1133C347.855 29.9653 348.408 29.892 349.012 29.892C349.548 29.892 350.023 29.9506 350.436 30.0693C350.848 30.1866 351.211 30.348 351.52 30.552C351.831 30.7546 352.091 30.992 352.304 31.2626C352.516 31.532 352.691 31.8226 352.827 32.1333C352.964 32.4426 353.065 32.7613 353.132 33.0893C353.199 33.4173 353.244 33.74 353.267 34.056H351.248C351.215 33.648 351.133 33.296 351.005 32.9986C350.876 32.7 350.713 32.4546 350.515 32.26C350.316 32.0653 350.089 31.9213 349.833 31.828C349.576 31.7333 349.303 31.6866 349.012 31.6866C348.749 31.6866 348.491 31.7146 348.237 31.7733C347.983 31.8306 347.755 31.924 347.555 32.056C347.353 32.1853 347.191 32.356 347.064 32.5653C346.939 32.7746 346.876 33.032 346.876 33.336C346.876 33.688 346.972 33.984 347.165 34.224C347.357 34.464 347.611 34.6733 347.923 34.852C348.236 35.032 348.592 35.1933 348.995 35.336C349.397 35.4786 349.807 35.6266 350.225 35.7813C350.644 35.9373 351.055 36.1106 351.457 36.3013C351.86 36.4933 352.217 36.724 352.529 36.9946C352.841 37.264 353.095 37.5893 353.287 37.9693C353.48 38.348 353.576 38.8066 353.576 39.34C353.576 39.9906 353.467 40.5573 353.245 41.044C353.025 41.5306 352.719 41.936 352.324 42.26C351.931 42.5853 351.464 42.8306 350.925 42.9946C350.387 43.1586 349.796 43.24 349.153 43.24C348.579 43.24 348.02 43.1306 347.479 42.912C346.937 42.6933 346.452 42.3773 346.025 41.964C345.599 41.552 345.252 41.052 344.987 40.4653C344.721 39.88 344.581 39.216 344.564 38.4746H346.583Z" fill="#393536"/>
<path d="M126.305 68.6327V85.9421H118.085V49.5981H126.305V65.4954H139.764V49.5981H147.888V85.9421H139.764V68.6327H126.305Z" fill="#3068BA"/>
<path d="M154.569 49.5977H162.789V72.9217C162.789 74.351 162.989 75.6843 163.391 76.9217C163.791 78.159 164.359 79.2323 165.097 80.1377C165.833 81.0443 166.739 81.7683 167.812 82.3083C168.885 82.8483 170.079 83.119 171.393 83.119C172.708 83.119 173.893 82.8483 174.951 82.3083C176.008 81.7683 176.905 81.0443 177.643 80.1377C178.379 79.2323 178.948 78.159 179.349 76.9217C179.749 75.6843 179.951 74.351 179.951 72.9217V49.5977H185.141V72.9217C185.141 74.8043 184.845 76.5817 184.252 78.255C183.659 79.9297 182.737 81.4017 181.488 82.675C180.239 83.9483 178.636 84.9497 176.681 85.6803C174.727 86.4137 172.371 86.779 169.615 86.779C167.147 86.779 164.984 86.4137 163.125 85.6803C161.267 84.9497 159.696 83.9483 158.415 82.675C157.132 81.4017 156.172 79.9203 155.531 78.2297C154.889 76.539 154.569 74.751 154.569 72.8697V49.5977Z" fill="#3068BA"/>
<path d="M191.823 49.5977H199.802L211.387 74.4377L222.779 49.5977H230.615V85.943H222.395V62.2523L211.483 85.943H208.311L197.015 61.991V85.943H191.823V49.5977Z" fill="#3068BA"/>
<path d="M244.747 72.6074H254.794L249.843 60.8927L244.747 72.6074ZM253.111 48.8127L268.734 85.9421H260.37L256.188 76.0061H243.21L238.835 85.9421H233.211L249.554 48.8127H253.111Z" fill="#3068BA"/>
<path d="M271.377 49.5977H276.617L295.7 72.7123V49.5977H300.844V86.5177H297.286L276.569 60.9457V85.943H271.377V49.5977Z" fill="#3068BA"/>
<path d="M307.91 49.597H316.081V85.9424H307.91V49.597Z" fill="#3068BA"/>
<path d="M352.133 49.5977V52.683H340.597V85.943H332.377V52.683H320.84V49.5977H352.133Z" fill="#3068BA"/>
<path d="M356.507 49.5977H364.727V72.9217C364.727 74.351 364.927 75.6843 365.328 76.9217C365.728 78.159 366.296 79.2323 367.035 80.1377C367.771 81.0443 368.676 81.7683 369.749 82.3083C370.823 82.8483 372.016 83.119 373.331 83.119C374.645 83.119 375.831 82.8483 376.888 82.3083C377.945 81.7683 378.843 81.0443 379.58 80.1377C380.316 79.2323 380.885 78.159 381.287 76.9217C381.687 75.6843 381.888 74.351 381.888 72.9217V49.5977H387.079V72.9217C387.079 74.8043 386.783 76.5817 386.189 78.255C385.596 79.9297 384.675 81.4017 383.425 82.675C382.176 83.9483 380.573 84.9497 378.619 85.6803C376.664 86.4137 374.308 86.779 371.552 86.779C369.084 86.779 366.921 86.4137 365.063 85.6803C363.204 84.9497 361.633 83.9483 360.352 82.675C359.069 81.4017 358.109 79.9203 357.468 78.2297C356.827 76.539 356.507 74.751 356.507 72.8697V49.5977Z" fill="#3068BA"/>
<path d="M405.249 86.5182C403.262 86.5182 401.515 86.2662 400.009 85.7609C398.502 85.2555 397.221 84.5489 396.165 83.6422C395.106 82.7355 394.265 81.6542 393.639 80.3995C393.015 79.1449 392.59 77.7849 392.366 76.3209H398.038C398.454 78.1329 399.231 79.6582 400.37 80.8969C401.507 82.1342 403.117 82.7529 405.201 82.7529C405.906 82.7529 406.595 82.6742 407.267 82.5182C407.941 82.3609 408.542 82.1075 409.07 81.7595C409.599 81.4102 410.031 80.9395 410.369 80.3475C410.705 79.7542 410.873 79.0395 410.873 78.2035C410.873 76.7742 410.433 75.5449 409.551 74.5169C408.669 73.4889 407.573 72.5555 406.258 71.7182C404.943 70.8809 403.51 70.0795 401.957 69.3129C400.402 68.5462 398.967 67.6835 397.654 66.7235C396.339 65.7662 395.242 64.6675 394.361 63.4302C393.479 62.1929 393.039 60.6849 393.039 58.9062C393.039 57.4769 393.327 56.1435 393.905 54.9062C394.481 53.6675 395.323 52.5969 396.429 51.6889C397.534 50.7835 398.887 50.0769 400.49 49.5715C402.093 49.0662 403.903 48.8129 405.922 48.8129C407.621 48.8129 409.15 49.0662 410.513 49.5715C411.874 50.0769 413.077 50.7662 414.118 51.6369C415.159 52.5089 416.033 53.5462 416.738 54.7489C417.442 55.9515 417.987 57.2329 418.373 58.5929H413.229C412.941 57.7209 412.595 56.8929 412.195 56.1075C411.794 55.3235 411.306 54.6355 410.729 54.0422C410.153 53.4502 409.455 52.9795 408.638 52.6302C407.821 52.2822 406.835 52.1075 405.682 52.1075C404.625 52.1075 403.735 52.2569 403.014 52.5515C402.293 52.8489 401.699 53.2315 401.235 53.7022C400.77 54.1729 400.442 54.7049 400.25 55.2969C400.057 55.8902 399.962 56.4662 399.962 57.0235C399.962 58.3142 400.418 59.4462 401.331 60.4222C402.245 61.3995 403.382 62.3142 404.745 63.1675C406.106 64.0222 407.581 64.8595 409.166 65.6782C410.753 66.4982 412.226 67.3955 413.589 68.3715C414.95 69.3475 416.089 70.4555 417.002 71.6915C417.915 72.9302 418.373 74.3849 418.373 76.0582C418.373 77.5235 418.091 78.8915 417.53 80.1635C416.97 81.4369 416.137 82.5435 415.031 83.4849C413.926 84.4275 412.555 85.1662 410.921 85.7089C409.287 86.2475 407.395 86.5182 405.249 86.5182Z" fill="#3068BA"/>
</svg>
