<svg width="339" height="86" viewBox="0 0 339 86" fill="none" xmlns="http://www.w3.org/2000/svg">
<path d="M248.957 42.6675H249.115L248.039 32.1928L248.957 42.6675Z" fill="white"/>
<path fill-rule="evenodd" clip-rule="evenodd" d="M56.6879 13.4658C53.6266 13.0644 52.4399 11.2378 51.5492 8.8511C51.3706 11.7284 49.3372 12.7684 46.5786 13.8911C49.6612 14.3298 50.8626 16.0364 51.6372 18.3511C53.1052 15.1591 53.1052 15.1591 56.6879 13.4658ZM67.3586 32.4364C63.5759 34.7818 59.5506 36.4044 55.2012 37.1151C50.8252 37.8311 46.4386 38.3724 41.7586 36.9338C44.7599 34.2524 46.3252 31.3978 45.0559 27.6844C44.4546 25.9204 43.2719 24.7498 41.2639 24.5804C36.0772 24.1431 34.8559 28.0738 33.4759 32.2511C30.4946 28.2138 30.3292 24.1884 31.3212 20.0964C32.4839 15.2991 36.5799 14.1738 40.8039 13.2618C39.4919 12.9871 38.3039 13.0391 37.1212 12.9791C32.0719 12.7191 28.8012 15.1404 26.8239 19.6431C25.1679 23.4098 25.1279 27.3378 25.8052 31.2524C27.5706 41.4604 32.8879 50.0151 38.7372 58.2911C38.8346 58.4298 39.1666 58.4058 39.5492 58.4951C39.4372 57.7124 39.3266 57.0924 39.2572 56.4684C38.5732 50.2431 40.8812 46.4898 46.7439 44.3591C48.0332 43.8911 49.3639 43.5298 50.6852 43.1511C54.1199 42.1658 57.5719 41.2351 60.7159 39.4418C63.6066 37.7924 66.0879 35.7604 67.3586 32.4364V32.4364ZM23.5319 37.3071C23.6839 46.7564 26.7132 55.2004 32.1666 62.8444C37.8399 70.7924 45.3892 76.4791 53.8572 81.0964C54.6426 81.5218 55.9239 81.7764 55.8759 82.7364C55.8132 83.9578 54.3626 83.7831 53.4879 84.1631C46.4572 87.2258 41.6999 83.8738 37.0692 78.8818C28.4239 69.5591 22.7479 59.0098 21.8239 46.1524C20.0946 60.4098 24.9012 72.7071 33.4772 83.9098C31.9159 84.5204 30.8226 83.8831 29.7439 83.5271C10.2826 77.1164 -1.56142 59.5071 0.166577 38.5004C1.72124 19.5831 16.0479 4.08443 35.3492 0.633764C51.9066 -2.3249 70.0946 5.15776 79.8799 21.3564C88.1466 35.0418 87.2919 54.4844 77.4186 67.8431C72.8079 74.0844 66.2079 74.7151 59.3626 73.8644C49.3039 72.6151 41.9932 66.4564 35.4252 59.3538C29.6012 53.0538 25.9746 45.4911 23.5319 37.3071" fill="white"/>
<path d="M96.525 29.4502C96.525 30.1528 96.605 30.7635 96.765 31.2795C96.9264 31.7955 97.137 32.2235 97.3984 32.5622C97.661 32.9008 97.9584 33.1542 98.2904 33.3182C98.6224 33.4835 98.9584 33.5648 99.297 33.5648C99.645 33.5648 99.961 33.4875 100.246 33.3328C100.53 33.1782 100.78 32.9728 100.996 32.7168C101.21 32.4622 101.386 32.1702 101.528 31.8435C101.666 31.5168 101.769 31.1808 101.832 30.8368H103.458C103.354 31.4222 103.189 31.9662 102.961 32.4702C102.732 32.9742 102.442 33.4142 102.093 33.7902C101.742 34.1662 101.333 34.4608 100.866 34.6755C100.398 34.8888 99.8757 34.9955 99.297 34.9955C98.6277 34.9955 98.025 34.8715 97.4877 34.6235C96.949 34.3755 96.4917 34.0142 96.1104 33.5395C95.7304 33.0648 95.4397 32.4835 95.233 31.7955C95.0277 31.1075 94.925 30.3235 94.925 29.4435C94.925 28.7595 95.0224 28.1022 95.217 27.4702C95.4104 26.8395 95.6944 26.2795 96.0664 25.7928C96.4397 25.3062 96.8957 24.9182 97.437 24.6275C97.9757 24.3382 98.5904 24.1928 99.2757 24.1928C99.8637 24.1928 100.389 24.2835 100.853 24.4648C101.316 24.6462 101.721 24.8982 102.069 25.2208C102.417 25.5435 102.71 25.9248 102.946 26.3675C103.184 26.8102 103.373 27.2942 103.513 27.8208H101.852C101.612 27.0888 101.282 26.5408 100.862 26.1795C100.442 25.8182 99.9144 25.6382 99.2757 25.6382C98.8744 25.6382 98.505 25.7382 98.1677 25.9395C97.8304 26.1422 97.541 26.4155 97.297 26.7622C97.053 27.1088 96.8637 27.5128 96.7277 27.9755C96.593 28.4382 96.525 28.9288 96.525 29.4502Z" fill="white"/>
<path d="M112.301 29.5608C112.301 28.9368 112.228 28.3808 112.084 27.8942C111.94 27.4075 111.741 26.9982 111.492 26.6662C111.24 26.3342 110.945 26.0822 110.609 25.9062C110.273 25.7315 109.911 25.6448 109.521 25.6448C109.128 25.6448 108.764 25.7315 108.428 25.9062C108.091 26.0822 107.799 26.3342 107.552 26.6662C107.307 26.9982 107.112 27.4075 106.969 27.8942C106.828 28.3808 106.756 28.9368 106.756 29.5608C106.756 30.1848 106.828 30.7435 106.969 31.2342C107.112 31.7275 107.307 32.1435 107.552 32.4848C107.799 32.8262 108.091 33.0875 108.428 33.2661C108.764 33.4461 109.128 33.5355 109.521 33.5355C109.911 33.5355 110.273 33.4461 110.609 33.2661C110.945 33.0875 111.24 32.8262 111.492 32.4848C111.741 32.1435 111.94 31.7275 112.084 31.2342C112.228 30.7435 112.301 30.1848 112.301 29.5608ZM113.9 29.5675C113.9 30.3648 113.804 31.0955 113.609 31.7622C113.415 32.4288 113.132 33.0008 112.759 33.4808C112.385 33.9595 111.928 34.3328 111.385 34.5981C110.843 34.8635 110.221 34.9955 109.521 34.9955C108.821 34.9955 108.201 34.8621 107.661 34.5941C107.12 34.3261 106.664 33.9528 106.292 33.4728C105.919 32.9941 105.636 32.4208 105.444 31.7555C105.252 31.0888 105.157 30.3568 105.157 29.5608C105.157 28.7648 105.252 28.0368 105.444 27.3782C105.636 26.7195 105.919 26.1542 106.292 25.6822C106.664 25.2102 107.12 24.8435 107.661 24.5835C108.201 24.3222 108.821 24.1928 109.521 24.1928C110.221 24.1928 110.843 24.3235 111.385 24.5875C111.928 24.8502 112.385 25.2168 112.759 25.6888C113.132 26.1608 113.415 26.7275 113.609 27.3862C113.804 28.0448 113.9 28.7715 113.9 29.5675Z" fill="white"/>
<path d="M117.331 31.139C117.355 31.4937 117.42 31.8163 117.531 32.1097C117.642 32.4017 117.788 32.6537 117.97 32.8643C118.15 33.0763 118.362 33.2403 118.606 33.355C118.851 33.471 119.119 33.5283 119.414 33.5283C119.67 33.5283 119.916 33.499 120.155 33.4403C120.392 33.3817 120.6 33.2843 120.782 33.1523C120.963 33.0203 121.107 32.847 121.215 32.6323C121.324 32.419 121.378 32.155 121.378 31.839C121.378 31.5643 121.302 31.331 121.144 31.139C120.988 30.947 120.784 30.7817 120.531 30.6417C120.278 30.5003 119.988 30.375 119.663 30.2617C119.338 30.1483 119.007 30.0283 118.671 29.9043C118.334 29.7777 118.003 29.639 117.678 29.487C117.352 29.335 117.063 29.147 116.81 28.923C116.556 28.699 116.352 28.4297 116.195 28.115C116.04 27.8017 115.963 27.4217 115.963 26.9803C115.963 26.5283 116.043 26.1283 116.206 25.7817C116.368 25.435 116.598 25.143 116.895 24.9083C117.191 24.671 117.543 24.4937 117.952 24.3723C118.36 24.2523 118.808 24.1923 119.298 24.1923C119.731 24.1923 120.115 24.2403 120.45 24.3363C120.784 24.4323 121.078 24.5617 121.327 24.727C121.579 24.891 121.79 25.083 121.962 25.303C122.134 25.5217 122.274 25.755 122.384 26.0057C122.495 26.2563 122.579 26.515 122.632 26.7803C122.687 27.0457 122.723 27.307 122.742 27.5617H121.107C121.08 27.2337 121.015 26.9483 120.911 26.707C120.806 26.467 120.675 26.267 120.515 26.1097C120.354 25.9523 120.17 25.835 119.962 25.759C119.754 25.683 119.532 25.6443 119.298 25.6443C119.084 25.6443 118.875 25.6683 118.671 25.715C118.466 25.7617 118.28 25.8377 118.118 25.9443C117.955 26.0497 117.823 26.187 117.722 26.3563C117.62 26.527 117.57 26.7337 117.57 26.9803C117.57 27.2657 117.646 27.5043 117.803 27.699C117.959 27.8923 118.163 28.063 118.415 28.2083C118.67 28.3523 118.959 28.483 119.284 28.599C119.61 28.7137 119.942 28.8337 120.28 28.9603C120.619 29.0857 120.951 29.2257 121.276 29.3803C121.602 29.535 121.891 29.723 122.144 29.9403C122.398 30.1603 122.602 30.423 122.758 30.7297C122.914 31.0377 122.991 31.407 122.991 31.839C122.991 32.3657 122.903 32.8257 122.724 33.219C122.546 33.6123 122.298 33.9403 121.978 34.203C121.659 34.467 121.283 34.6643 120.847 34.7977C120.411 34.9297 119.932 34.9963 119.414 34.9963C118.947 34.9963 118.495 34.9083 118.056 34.731C117.619 34.5537 117.227 34.2977 116.88 33.9643C116.535 33.6297 116.254 33.2243 116.04 32.7497C115.826 32.2763 115.711 31.739 115.698 31.139H117.331Z" fill="white"/>
<path d="M126.905 24.4502V31.2648C126.905 31.6235 126.96 31.9448 127.068 32.2275C127.176 32.5088 127.321 32.7488 127.501 32.9422C127.683 33.1368 127.891 33.2835 128.129 33.3848C128.367 33.4848 128.613 33.5355 128.872 33.5355C129.147 33.5355 129.415 33.4888 129.675 33.3955C129.933 33.3022 130.165 33.1622 130.369 32.9755C130.572 32.7888 130.735 32.5568 130.857 32.2782C130.98 32.0008 131.041 31.6742 131.041 31.3008V24.4502H132.64V31.2208C132.64 31.8355 132.536 32.3768 132.324 32.8462C132.115 33.3155 131.835 33.7102 131.488 34.0302C131.14 34.3502 130.74 34.5902 130.288 34.7528C129.836 34.9155 129.368 34.9955 128.884 34.9955C128.424 34.9955 127.977 34.9168 127.545 34.7555C127.113 34.5968 126.732 34.3582 126.4 34.0408C126.068 33.7235 125.803 33.3275 125.603 32.8502C125.405 32.3728 125.305 31.8195 125.305 31.1902V24.4502H126.905Z" fill="white"/>
<path d="M137.171 24.4502V33.2409H141.719V34.7382H135.571V24.4502H137.171Z" fill="white"/>
<path d="M149.116 24.4502V25.9182H146.127V34.7382H144.527V25.9182H141.531V24.4502H149.116Z" fill="white"/>
<path d="M157.491 29.5608C157.491 28.9368 157.418 28.3808 157.274 27.8942C157.13 27.4075 156.931 26.9982 156.682 26.6662C156.43 26.3342 156.135 26.0822 155.799 25.9062C155.463 25.7315 155.101 25.6448 154.711 25.6448C154.318 25.6448 153.954 25.7315 153.618 25.9062C153.281 26.0822 152.989 26.3342 152.742 26.6662C152.497 26.9982 152.302 27.4075 152.159 27.8942C152.018 28.3808 151.946 28.9368 151.946 29.5608C151.946 30.1848 152.018 30.7435 152.159 31.2342C152.302 31.7275 152.497 32.1435 152.742 32.4848C152.989 32.8262 153.281 33.0875 153.618 33.2661C153.954 33.4461 154.318 33.5355 154.711 33.5355C155.101 33.5355 155.463 33.4461 155.799 33.2661C156.135 33.0875 156.43 32.8262 156.682 32.4848C156.931 32.1435 157.13 31.7275 157.274 31.2342C157.418 30.7435 157.491 30.1848 157.491 29.5608ZM159.09 29.5675C159.09 30.3648 158.994 31.0955 158.799 31.7622C158.605 32.4288 158.322 33.0008 157.949 33.4808C157.575 33.9595 157.118 34.3328 156.575 34.5981C156.033 34.8635 155.411 34.9955 154.711 34.9955C154.011 34.9955 153.391 34.8621 152.851 34.5941C152.31 34.3261 151.854 33.9528 151.482 33.4728C151.109 32.9941 150.826 32.4208 150.634 31.7555C150.442 31.0888 150.347 30.3568 150.347 29.5608C150.347 28.7648 150.442 28.0368 150.634 27.3782C150.826 26.7195 151.109 26.1542 151.482 25.6822C151.854 25.2102 152.31 24.8435 152.851 24.5835C153.391 24.3222 154.011 24.1928 154.711 24.1928C155.411 24.1928 156.033 24.3235 156.575 24.5875C157.118 24.8502 157.575 25.2168 157.949 25.6888C158.322 26.1608 158.605 26.7275 158.799 27.3862C158.994 28.0448 159.09 28.7715 159.09 29.5675Z" fill="white"/>
<path d="M163.099 29.0595H165.513C165.706 29.0595 165.891 29.0209 166.066 28.9449C166.238 28.8689 166.393 28.7635 166.526 28.6275C166.659 28.4929 166.765 28.3289 166.842 28.1382C166.918 27.9462 166.957 27.7342 166.957 27.5035C166.957 27.2782 166.919 27.0675 166.849 26.8729C166.775 26.6782 166.675 26.5115 166.546 26.3715C166.417 26.2315 166.265 26.1209 166.089 26.0395C165.911 25.9582 165.721 25.9182 165.513 25.9182H163.099V29.0595ZM168.57 27.4662C168.57 27.9195 168.461 28.3422 168.243 28.7382C168.027 29.1342 167.699 29.4769 167.261 29.7675C167.469 29.8462 167.647 29.9595 167.797 30.1062C167.946 30.2542 168.069 30.4209 168.163 30.6049C168.258 30.7889 168.327 30.9849 168.373 31.1942C168.418 31.4035 168.441 31.6115 168.441 31.8169V33.2995C168.441 33.4915 168.482 33.7129 168.567 33.9635C168.65 34.2142 168.763 34.4729 168.907 34.7382H167.159C167.091 34.6195 167.038 34.4969 166.997 34.3689C166.957 34.2409 166.925 34.1155 166.902 33.9929C166.879 33.8702 166.865 33.7542 166.858 33.6462C166.85 33.5382 166.849 33.4422 166.849 33.3595V31.7955C166.849 31.6422 166.825 31.4902 166.777 31.3382C166.73 31.1862 166.653 31.0502 166.546 30.9289C166.441 30.8089 166.302 30.7102 166.133 30.6342C165.962 30.5582 165.757 30.5195 165.513 30.5195H163.099V34.7382H161.499V24.4502H165.513C166.001 24.4502 166.434 24.5382 166.814 24.7155C167.193 24.8929 167.514 25.1222 167.773 25.4049C168.033 25.6875 168.231 26.0102 168.366 26.3715C168.502 26.7329 168.57 27.0982 168.57 27.4662Z" fill="white"/>
<path d="M178.088 24.4502V25.9182H173.01V28.6982H177.777V30.1729H173.01V33.2409H178.312V34.7382H171.41V24.4502H178.088Z" fill="white"/>
<path d="M181.865 31.139C181.889 31.4937 181.954 31.8163 182.065 32.1097C182.176 32.4017 182.322 32.6537 182.504 32.8643C182.684 33.0763 182.896 33.2403 183.14 33.355C183.385 33.471 183.653 33.5283 183.948 33.5283C184.204 33.5283 184.45 33.499 184.689 33.4403C184.926 33.3817 185.134 33.2843 185.316 33.1523C185.497 33.0203 185.641 32.847 185.749 32.6323C185.858 32.419 185.912 32.155 185.912 31.839C185.912 31.5643 185.836 31.331 185.678 31.139C185.522 30.947 185.318 30.7817 185.065 30.6417C184.812 30.5003 184.522 30.375 184.197 30.2617C183.872 30.1483 183.541 30.0283 183.205 29.9043C182.868 29.7777 182.537 29.639 182.212 29.487C181.886 29.335 181.597 29.147 181.344 28.923C181.09 28.699 180.886 28.4297 180.729 28.115C180.574 27.8017 180.497 27.4217 180.497 26.9803C180.497 26.5283 180.577 26.1283 180.74 25.7817C180.902 25.435 181.132 25.143 181.429 24.9083C181.725 24.671 182.077 24.4937 182.486 24.3723C182.894 24.2523 183.342 24.1923 183.832 24.1923C184.265 24.1923 184.649 24.2403 184.984 24.3363C185.318 24.4323 185.612 24.5617 185.861 24.727C186.113 24.891 186.324 25.083 186.496 25.303C186.668 25.5217 186.808 25.755 186.918 26.0057C187.029 26.2563 187.113 26.515 187.166 26.7803C187.221 27.0457 187.257 27.307 187.276 27.5617H185.641C185.614 27.2337 185.549 26.9483 185.445 26.707C185.34 26.467 185.209 26.267 185.049 26.1097C184.888 25.9523 184.704 25.835 184.496 25.759C184.288 25.683 184.066 25.6443 183.832 25.6443C183.618 25.6443 183.409 25.6683 183.205 25.715C183 25.7617 182.814 25.8377 182.652 25.9443C182.489 26.0497 182.357 26.187 182.256 26.3563C182.154 26.527 182.104 26.7337 182.104 26.9803C182.104 27.2657 182.18 27.5043 182.337 27.699C182.493 27.8923 182.697 28.063 182.949 28.2083C183.204 28.3523 183.493 28.483 183.818 28.599C184.144 28.7137 184.476 28.8337 184.814 28.9603C185.153 29.0857 185.485 29.2257 185.81 29.3803C186.136 29.535 186.425 29.723 186.678 29.9403C186.932 30.1603 187.136 30.423 187.292 30.7297C187.448 31.0377 187.525 31.407 187.525 31.839C187.525 32.3657 187.437 32.8257 187.258 33.219C187.08 33.6123 186.832 33.9403 186.512 34.203C186.193 34.467 185.817 34.6643 185.381 34.7977C184.945 34.9297 184.466 34.9963 183.948 34.9963C183.481 34.9963 183.029 34.9083 182.59 34.731C182.153 34.5537 181.761 34.2977 181.414 33.9643C181.069 33.6297 180.788 33.2243 180.574 32.7497C180.36 32.2763 180.245 31.739 180.232 31.139H181.865Z" fill="white"/>
<path d="M195.135 34.7383H193.535V24.4503H195.135V34.7383Z" fill="white"/>
<path d="M199.89 24.4502L203.95 32.2675V24.4502H205.55V34.7382H203.747L199.666 26.8395V34.7382H198.066V24.4502H199.89Z" fill="white"/>
<path d="M215.427 24.4502V25.9182H212.438V34.7382H210.838V25.9182H207.842V24.4502H215.427Z" fill="white"/>
<path d="M224.391 24.4502V25.9182H219.314V28.6982H224.08V30.1729H219.314V33.2409H224.615V34.7382H217.714V24.4502H224.391Z" fill="white"/>
<path d="M228.373 29.5979C228.373 30.2326 228.447 30.7939 228.595 31.2832C228.745 31.7726 228.947 32.1832 229.202 32.5179C229.457 32.8526 229.755 33.1072 230.094 33.2819C230.433 33.4566 230.791 33.5432 231.173 33.5432C231.483 33.5432 231.789 33.4592 232.086 33.2926C232.386 33.1259 232.655 32.9032 232.898 32.6259C233.138 32.3472 233.342 32.0259 233.505 31.6619C233.666 31.2992 233.769 30.9206 233.809 30.5272H231.022V29.0672H235.389V34.7379H234.181L233.991 33.5139C233.811 33.7206 233.611 33.9126 233.393 34.0926C233.173 34.2726 232.943 34.4286 232.703 34.5606C232.463 34.6939 232.215 34.7992 231.958 34.8779C231.701 34.9566 231.446 34.9952 231.191 34.9952C230.514 34.9952 229.902 34.8592 229.358 34.5872C228.814 34.3139 228.349 33.9366 227.965 33.4552C227.581 32.9726 227.287 32.4032 227.081 31.7432C226.875 31.0846 226.773 30.3699 226.773 29.5979C226.773 29.1512 226.817 28.7059 226.903 28.2632C226.993 27.8206 227.122 27.3992 227.29 26.9979C227.459 26.5979 227.67 26.2259 227.918 25.8846C228.167 25.5432 228.451 25.2472 228.773 24.9952C229.093 24.7446 229.451 24.5486 229.846 24.4059C230.242 24.2632 230.669 24.1926 231.123 24.1926C231.711 24.1926 232.237 24.2832 232.701 24.4646C233.163 24.6472 233.569 24.8992 233.917 25.2206C234.265 25.5432 234.558 25.9259 234.794 26.3672C235.031 26.8099 235.221 27.2939 235.361 27.8206H233.699C233.459 27.0886 233.13 26.5419 232.71 26.1806C232.29 25.8179 231.762 25.6379 231.123 25.6379C230.722 25.6379 230.353 25.7419 230.015 25.9512C229.678 26.1592 229.389 26.4446 229.145 26.8059C228.901 27.1672 228.711 27.5886 228.575 28.0672C228.441 28.5472 228.373 29.0566 228.373 29.5979Z" fill="white"/>
<path d="M239.754 29.0595H242.168C242.361 29.0595 242.546 29.0209 242.721 28.9449C242.893 28.8689 243.048 28.7635 243.181 28.6275C243.314 28.4929 243.42 28.3289 243.497 28.1382C243.573 27.9462 243.612 27.7342 243.612 27.5035C243.612 27.2782 243.574 27.0675 243.504 26.8729C243.43 26.6782 243.33 26.5115 243.201 26.3715C243.072 26.2315 242.92 26.1209 242.744 26.0395C242.566 25.9582 242.376 25.9182 242.168 25.9182H239.754V29.0595ZM245.225 27.4662C245.225 27.9195 245.116 28.3422 244.898 28.7382C244.682 29.1342 244.354 29.4769 243.916 29.7675C244.124 29.8462 244.302 29.9595 244.452 30.1062C244.601 30.2542 244.724 30.4209 244.818 30.6049C244.913 30.7889 244.982 30.9849 245.028 31.1942C245.073 31.4035 245.096 31.6115 245.096 31.8169V33.2995C245.096 33.4915 245.137 33.7129 245.222 33.9635C245.305 34.2142 245.418 34.4729 245.562 34.7382H243.814C243.746 34.6195 243.693 34.4969 243.652 34.3689C243.612 34.2409 243.58 34.1155 243.557 33.9929C243.534 33.8702 243.52 33.7542 243.513 33.6462C243.505 33.5382 243.504 33.4422 243.504 33.3595V31.7955C243.504 31.6422 243.48 31.4902 243.432 31.3382C243.385 31.1862 243.308 31.0502 243.201 30.9289C243.096 30.8089 242.957 30.7102 242.788 30.6342C242.617 30.5582 242.412 30.5195 242.168 30.5195H239.754V34.7382H238.154V24.4502H242.168C242.656 24.4502 243.089 24.5382 243.469 24.7155C243.848 24.8929 244.169 25.1222 244.428 25.4049C244.688 25.6875 244.886 26.0102 245.021 26.3715C245.157 26.7329 245.225 27.0982 245.225 27.4662Z" fill="white"/>
<path d="M251.836 26.6038L250.63 30.2691H253.035L251.836 26.6038ZM252.771 24.4504L256.228 34.7384H254.554L253.538 31.7291H250.135C249.972 32.2251 249.804 32.7278 249.63 33.2331C249.456 33.7398 249.287 34.2411 249.124 34.7384H247.471L250.927 24.4504H252.771Z" fill="white"/>
<path d="M260.163 33.2411H261.858C262.287 33.2411 262.686 33.1611 263.051 33.0011C263.417 32.8411 263.734 32.6064 264.001 32.2971C264.266 31.9878 264.474 31.6064 264.623 31.1544C264.773 30.7011 264.847 30.1838 264.847 29.5984C264.847 28.9584 264.771 28.4078 264.621 27.9451C264.469 27.4838 264.259 27.1024 263.993 26.8024C263.726 26.5024 263.411 26.2798 263.043 26.1358C262.678 25.9904 262.283 25.9171 261.858 25.9171H260.163V33.2411ZM258.563 24.4504H262.238C262.889 24.4504 263.471 24.5838 263.99 24.8518C264.507 25.1198 264.947 25.4864 265.311 25.9504C265.675 26.4158 265.955 26.9584 266.149 27.5811C266.343 28.2024 266.441 28.8678 266.441 29.5758C266.441 30.3131 266.338 30.9958 266.133 31.6264C265.926 32.2558 265.638 32.8011 265.271 33.2638C264.903 33.7251 264.462 34.0864 263.946 34.3478C263.43 34.6078 262.861 34.7384 262.238 34.7384H258.563V24.4504Z" fill="white"/>
<path d="M275.47 29.5608C275.47 28.9368 275.397 28.3808 275.253 27.8942C275.109 27.4075 274.91 26.9982 274.661 26.6662C274.409 26.3342 274.114 26.0822 273.778 25.9062C273.442 25.7315 273.08 25.6448 272.69 25.6448C272.297 25.6448 271.933 25.7315 271.597 25.9062C271.26 26.0822 270.968 26.3342 270.721 26.6662C270.476 26.9982 270.281 27.4075 270.138 27.8942C269.997 28.3808 269.925 28.9368 269.925 29.5608C269.925 30.1848 269.997 30.7435 270.138 31.2342C270.281 31.7275 270.476 32.1435 270.721 32.4848C270.968 32.8262 271.26 33.0875 271.597 33.2661C271.933 33.4461 272.297 33.5355 272.69 33.5355C273.08 33.5355 273.442 33.4461 273.778 33.2661C274.114 33.0875 274.409 32.8262 274.661 32.4848C274.91 32.1435 275.109 31.7275 275.253 31.2342C275.397 30.7435 275.47 30.1848 275.47 29.5608ZM277.069 29.5675C277.069 30.3648 276.973 31.0955 276.778 31.7622C276.584 32.4288 276.301 33.0008 275.928 33.4808C275.554 33.9595 275.097 34.3328 274.554 34.5981C274.012 34.8635 273.39 34.9955 272.69 34.9955C271.99 34.9955 271.37 34.8621 270.83 34.5941C270.289 34.3261 269.833 33.9528 269.461 33.4728C269.088 32.9941 268.805 32.4208 268.613 31.7555C268.421 31.0888 268.326 30.3568 268.326 29.5608C268.326 28.7648 268.421 28.0368 268.613 27.3782C268.805 26.7195 269.088 26.1542 269.461 25.6822C269.833 25.2102 270.289 24.8435 270.83 24.5835C271.37 24.3222 271.99 24.1928 272.69 24.1928C273.39 24.1928 274.012 24.3235 274.554 24.5875C275.097 24.8502 275.554 25.2168 275.928 25.6888C276.301 26.1608 276.584 26.7275 276.778 27.3862C276.973 28.0448 277.069 28.7715 277.069 29.5675Z" fill="white"/>
<path d="M280.502 31.139C280.526 31.4937 280.591 31.8163 280.702 32.1097C280.812 32.4017 280.959 32.6537 281.14 32.8643C281.32 33.0763 281.532 33.2403 281.776 33.355C282.022 33.471 282.29 33.5283 282.584 33.5283C282.84 33.5283 283.087 33.499 283.326 33.4403C283.563 33.3817 283.771 33.2843 283.952 33.1523C284.134 33.0203 284.278 32.847 284.386 32.6323C284.495 32.419 284.548 32.155 284.548 31.839C284.548 31.5643 284.472 31.331 284.315 31.139C284.159 30.947 283.955 30.7817 283.702 30.6417C283.448 30.5003 283.159 30.375 282.834 30.2617C282.508 30.1483 282.178 30.0283 281.842 29.9043C281.504 29.7777 281.174 29.639 280.848 29.487C280.523 29.335 280.234 29.147 279.98 28.923C279.727 28.699 279.523 28.4297 279.366 28.115C279.211 27.8017 279.134 27.4217 279.134 26.9803C279.134 26.5283 279.214 26.1283 279.376 25.7817C279.539 25.435 279.768 25.143 280.066 24.9083C280.362 24.671 280.714 24.4937 281.123 24.3723C281.531 24.2523 281.979 24.1923 282.468 24.1923C282.902 24.1923 283.286 24.2403 283.62 24.3363C283.955 24.4323 284.248 24.5617 284.498 24.727C284.75 24.891 284.96 25.083 285.132 25.303C285.304 25.5217 285.444 25.755 285.555 26.0057C285.666 26.2563 285.75 26.515 285.803 26.7803C285.858 27.0457 285.894 27.307 285.912 27.5617H284.278C284.251 27.2337 284.186 26.9483 284.082 26.707C283.976 26.467 283.846 26.267 283.686 26.1097C283.524 25.9523 283.34 25.835 283.132 25.759C282.924 25.683 282.703 25.6443 282.468 25.6443C282.255 25.6443 282.046 25.6683 281.842 25.715C281.636 25.7617 281.451 25.8377 281.288 25.9443C281.126 26.0497 280.994 26.187 280.892 26.3563C280.791 26.527 280.74 26.7337 280.74 26.9803C280.74 27.2657 280.816 27.5043 280.974 27.699C281.13 27.8923 281.334 28.063 281.586 28.2083C281.84 28.3523 282.13 28.483 282.455 28.599C282.78 28.7137 283.112 28.8337 283.451 28.9603C283.79 29.0857 284.122 29.2257 284.447 29.3803C284.772 29.535 285.062 29.723 285.315 29.9403C285.568 30.1603 285.772 30.423 285.928 30.7297C286.084 31.0377 286.162 31.407 286.162 31.839C286.162 32.3657 286.074 32.8257 285.895 33.219C285.716 33.6123 285.468 33.9403 285.148 34.203C284.83 34.467 284.454 34.6643 284.018 34.7977C283.582 34.9297 283.103 34.9963 282.584 34.9963C282.118 34.9963 281.666 34.9083 281.227 34.731C280.79 34.5537 280.398 34.2977 280.051 33.9643C279.706 33.6297 279.424 33.2243 279.211 32.7497C278.996 32.2763 278.882 31.739 278.868 31.139H280.502Z" fill="white"/>
<path d="M102.223 55.5464V69.5557H95.571V40.1397H102.223V53.0064H113.116V40.1397H119.691V69.5557H113.116V55.5464H102.223Z" fill="white"/>
<path d="M125.099 40.1403H131.751V59.0176C131.751 60.1736 131.913 61.2536 132.238 62.255C132.562 63.2563 133.022 64.1243 133.619 64.8576C134.215 65.5923 134.949 66.1763 135.817 66.6136C136.685 67.0523 137.651 67.271 138.715 67.271C139.779 67.271 140.738 67.0523 141.594 66.6136C142.45 66.1763 143.177 65.5923 143.773 64.8576C144.369 64.1243 144.83 63.2563 145.154 62.255C145.478 61.2536 145.639 60.1736 145.639 59.0176V40.1403H149.842V59.0176C149.842 60.5403 149.602 61.9803 149.122 63.335C148.642 64.6883 147.897 65.8816 146.885 66.9096C145.874 67.9416 144.575 68.751 142.995 69.343C141.411 69.9376 139.506 70.2323 137.277 70.2323C135.278 70.2323 133.527 69.9376 132.023 69.343C130.519 68.751 129.247 67.9416 128.211 66.9096C127.174 65.8816 126.395 64.6816 125.877 63.3136C125.358 61.9456 125.099 60.499 125.099 58.975V40.1403Z" fill="white"/>
<path d="M155.25 40.1403H161.708L171.084 60.2443L180.304 40.1403H186.645V69.5563H179.993V50.383L171.162 69.5563H168.594L159.452 50.171V69.5563H155.25V40.1403Z" fill="white"/>
<path d="M198.082 58.7627H206.213L202.206 49.2827L198.082 58.7627ZM204.852 39.5054L217.496 69.556H210.725L207.341 61.5134H196.837L193.297 69.556H188.745L201.973 39.5054H204.852Z" fill="white"/>
<path d="M219.636 40.1403H223.876L239.321 58.847V40.1403H243.484V70.0216H240.605L223.837 49.3243V69.5563H219.636V40.1403Z" fill="white"/>
<path d="M249.202 40.1396H255.815V69.5557H249.202V40.1396Z" fill="white"/>
<path d="M284.993 40.1403V42.6376H275.655V69.5563H269.003V42.6376H259.666V40.1403H284.993Z" fill="white"/>
<path d="M288.532 40.1403H295.184V59.0176C295.184 60.1736 295.345 61.2536 295.67 62.255C295.994 63.2563 296.454 64.1243 297.052 64.8576C297.648 65.5923 298.381 66.1763 299.249 66.6136C300.117 67.0523 301.084 67.271 302.148 67.271C303.212 67.271 304.17 67.0523 305.026 66.6136C305.882 66.1763 306.609 65.5923 307.205 64.8576C307.801 64.1243 308.262 63.2563 308.586 62.255C308.91 61.2536 309.072 60.1736 309.072 59.0176V40.1403H313.274V59.0176C313.274 60.5403 313.034 61.9803 312.554 63.335C312.074 64.6883 311.329 65.8816 310.317 66.9096C309.306 67.9416 308.008 68.751 306.428 69.343C304.844 69.9376 302.938 70.2323 300.709 70.2323C298.71 70.2323 296.96 69.9376 295.456 69.343C293.952 68.751 292.68 67.9416 291.644 66.9096C290.606 65.8816 289.828 64.6816 289.309 63.3136C288.79 61.9456 288.532 60.499 288.532 58.975V40.1403Z" fill="white"/>
<path d="M327.981 70.0218C326.371 70.0218 324.958 69.8164 323.739 69.4071C322.519 68.9978 321.483 68.4284 320.627 67.6938C319.771 66.9604 319.09 66.0858 318.585 65.0684C318.079 64.0524 317.734 62.9524 317.554 61.7684H322.145C322.481 63.2351 323.111 64.4698 324.031 65.4711C324.953 66.4738 326.255 66.9738 327.942 66.9738C328.511 66.9738 329.069 66.9098 329.614 66.7831C330.159 66.6564 330.645 66.4511 331.073 66.1698C331.502 65.8871 331.85 65.5071 332.123 65.0271C332.397 64.5484 332.531 63.9684 332.531 63.2911C332.531 62.1351 332.175 61.1404 331.462 60.3071C330.749 59.4751 329.861 58.7204 328.797 58.0431C327.733 57.3658 326.573 56.7178 325.315 56.0964C324.058 55.4764 322.897 54.7778 321.834 54.0018C320.77 53.2258 319.882 52.3364 319.169 51.3351C318.454 50.3338 318.098 49.1124 318.098 47.6738C318.098 46.5178 318.333 45.4378 318.798 44.4364C319.266 43.4351 319.947 42.5671 320.842 41.8324C321.735 41.1004 322.831 40.5284 324.129 40.1191C325.425 39.7111 326.891 39.5058 328.525 39.5058C329.898 39.5058 331.137 39.7111 332.239 40.1191C333.342 40.5284 334.315 41.0858 335.158 41.7911C336.001 42.4964 336.707 43.3351 337.278 44.3098C337.847 45.2831 338.289 46.3204 338.601 47.4204H334.438C334.205 46.7151 333.926 46.0444 333.602 45.4098C333.278 44.7751 332.882 44.2178 332.415 43.7378C331.949 43.2578 331.385 42.8778 330.723 42.5951C330.062 42.3138 329.265 42.1724 328.33 42.1724C327.474 42.1724 326.754 42.2924 326.171 42.5311C325.587 42.7724 325.107 43.0818 324.731 43.4631C324.355 43.8431 324.09 44.2738 323.934 44.7538C323.779 45.2338 323.701 45.6991 323.701 46.1498C323.701 47.1938 324.07 48.1111 324.809 48.9018C325.549 49.6911 326.469 50.4324 327.571 51.1231C328.674 51.8151 329.867 52.4924 331.151 53.1551C332.435 53.8178 333.627 54.5458 334.73 55.3351C335.833 56.1244 336.753 57.0218 337.493 58.0218C338.23 59.0244 338.601 60.2018 338.601 61.5564C338.601 62.7418 338.374 63.8484 337.919 64.8791C337.466 65.9084 336.791 66.8044 335.897 67.5658C335.003 68.3271 333.894 68.9284 332.57 69.3658C331.247 69.8018 329.718 70.0218 327.981 70.0218Z" fill="white"/>
</svg>
