<svg width="106" height="106" viewBox="0 0 106 106" fill="none" xmlns="http://www.w3.org/2000/svg">
<circle cx="52.72" cy="52.72" r="52.72" fill="white"/>
<path fill-rule="evenodd" clip-rule="evenodd" d="M70.0431 16.6379C66.2617 16.1406 64.7951 13.8846 63.6951 10.9353C63.4711 14.4913 60.9604 15.7766 57.5511 17.1633C61.3631 17.7059 62.8444 19.8139 63.8031 22.6739C65.6177 18.7286 65.6177 18.7286 70.0431 16.6379ZM83.2271 40.0779C78.5537 42.9753 73.5817 44.9793 68.2071 45.8593C62.7991 46.7446 57.3791 47.4126 51.5977 45.6339C55.3057 42.3219 57.2377 38.7939 55.6711 34.2059C54.9284 32.0273 53.4671 30.5806 50.9857 30.3713C44.5751 29.8313 43.0684 34.6873 41.3617 39.8499C37.6791 34.8593 37.4764 29.8859 38.7004 24.8313C40.1351 18.9019 45.1991 17.5126 50.4164 16.3859C48.7951 16.0473 47.3271 16.1099 45.8671 16.0353C39.6271 15.7153 35.5871 18.7059 33.1431 24.2699C31.0991 28.9246 31.0484 33.7779 31.8844 38.6153C34.0671 51.2273 40.6364 61.7979 47.8644 72.0233C47.9857 72.1953 48.3937 72.1659 48.8684 72.2766C48.7271 71.3086 48.5911 70.5433 48.5071 69.7726C47.6604 62.0793 50.5124 57.4419 57.7551 54.8099C59.3484 54.2299 60.9937 53.7846 62.6257 53.3166C66.8711 52.0993 71.1364 50.9486 75.0177 48.7339C78.5911 46.6953 81.6577 44.1846 83.2271 40.0779V40.0779ZM29.0764 46.0966C29.2644 57.7713 33.0057 68.2046 39.7457 77.6499C46.7551 87.4699 56.0844 94.4966 66.5457 100.201C67.5151 100.727 69.0991 101.043 69.0404 102.227C68.9631 103.737 67.1697 103.522 66.0897 103.993C57.4031 107.777 51.5244 103.633 45.8031 97.4646C35.1204 85.9459 28.1071 72.9113 26.9644 57.0259C24.8297 74.6419 30.7684 89.8339 41.3644 103.677C39.4337 104.433 38.0831 103.645 36.7511 103.205C12.7071 95.2846 -1.92894 73.5259 0.205723 47.5699C2.12839 24.1966 19.8284 5.04727 43.6777 0.78327C64.1364 -2.87273 86.6071 6.37127 98.6977 26.3873C108.911 43.2966 107.856 67.3206 95.6577 83.8273C89.9604 91.5379 81.8044 92.3166 73.3484 91.2659C60.9191 89.7219 51.8871 82.1126 43.7711 73.3353C36.5751 65.5539 32.0951 56.2073 29.0764 46.0966" fill="#F68712"/>
</svg>
